<?xml version="1.0" encoding="UTF-8"?>
<svg width="24px" height="24px" viewBox="0 0 24 24" version="1.1" xmlns="http://www.w3.org/2000/svg" xmlns:xlink="http://www.w3.org/1999/xlink">
    <title>Arrow Icon</title>
    <g id="Arrow-Icon" stroke="none" stroke-width="1" fill="none" fill-rule="evenodd">
        <path d="M16.6791447,19.8311688 C16.4453784,19.5584416 16.016807,19.5194805 15.7051187,19.7532468 L12.7051187,22.2857143 L12.7051187,0.701298701 C12.7051187,0.311688312 12.3934304,1.77635684e-15 12.00382,1.77635684e-15 C11.6142096,1.77635684e-15 11.3025213,0.311688312 11.3025213,0.701298701 L11.3025213,22.2857143 L8.30252129,19.7532468 C8.02979402,19.5194805 7.60122259,19.5584416 7.32849532,19.8311688 C7.09472908,20.1038961 7.13369012,20.5324675 7.40641739,20.8051948 L10.6012226,23.4935065 C10.990833,23.8441558 11.4973265,24 11.964859,24 C12.4323914,24 12.9388849,23.8441558 13.3284953,23.4935065 L16.5233005,20.8051948 C16.8739499,20.5714286 16.9129109,20.1428571 16.6791447,19.8311688 Z" id="Path" fill="#3A4443" fill-rule="nonzero"></path>
    </g>
</svg>