<?xml version="1.0" encoding="UTF-8"?>
<svg width="256px" height="35px" viewBox="0 0 256 35" version="1.1" xmlns="http://www.w3.org/2000/svg" xmlns:xlink="http://www.w3.org/1999/xlink">
    <title>Combined Shape</title>
    <g id="Images" stroke="none" stroke-width="1" fill="none" fill-rule="evenodd">
        <path d="M19.6115412,2.05388962 C19.3691691,2.41313388 19.1748008,2.87662942 18.8335973,3.17153843 C18.0156502,3.87828694 17.1435811,4.52586582 16.2658646,5.15982628 C15.0535333,6.03610051 13.8322601,6.89546914 12.9220704,8.10985562 C12.8100615,8.25918853 12.7149952,8.43481906 12.5709838,8.54470554 C10.9835639,9.75345682 11.2254655,11.42993 11.4193632,13.0791664 C11.4513657,13.351065 11.6678534,13.6112236 11.8302192,13.856355 C12.4933306,14.8570733 12.8095909,15.9540597 12.7851184,17.151071 C12.7752352,17.6206713 12.6966408,18.0541125 12.1558921,18.213307 C11.7007972,18.0353284 11.8273955,17.6413338 11.8725755,17.3431375 C11.9770544,16.6476594 11.8236305,16.0226214 11.5821996,15.3745729 C11.1525185,14.2226433 10.8033144,13.0411288 10.4098715,11.8755808 C10.1242018,11.0288913 10.0978468,10.1897155 10.5425879,9.22750444 C10.179265,9.26742046 9.90771406,9.22562603 9.7185226,9.33034691 C8.80456788,9.83845448 7.91037943,10.3827213 7.01383786,10.9208833 C6.66086873,11.1331426 6.28625083,11.326618 5.98034426,11.5952294 C5.58972509,11.9380376 5.20898906,12.3155963 4.92426063,12.7443414 C4.79907425,12.9331207 4.81931115,13.355761 4.95296879,13.5487668 C5.24710973,13.9751639 5.60855011,14.3888818 6.02834806,14.6875476 C6.66698686,15.1416511 7.35315884,15.5487946 8.06427397,15.8793933 C9.89641904,16.7307787 11.0315677,17.45772 12.4213249,19.4723055 C12.8538297,19.2356269 13.3211608,19.0214892 13.7433119,18.739729 C14.5833784,18.1785565 15.3900305,17.5680761 16.2258614,17.0012685 C17.1873493,16.3489936 18.1535434,15.7023539 19.1409157,15.0909343 C19.706137,14.741082 20.3414814,14.5034643 20.9029376,14.1484464 C21.596169,13.7103093 22.2691634,13.2317865 22.9101554,12.7199222 C24.8514856,11.1707106 26.6205668,9.447747 28.1105671,7.45241514 C28.2677561,7.24203419 28.4277687,7.02883564 28.6183721,6.85038751 C29.0626425,6.433852 29.7125764,6.38595277 30.1634356,6.71138581 C30.6519448,7.06405566 30.8317238,7.64354248 30.5498191,8.20753249 C30.3681577,8.57147276 30.1144905,8.91428101 29.8358802,9.21294682 C28.6075477,10.5278278 27.3401532,11.8060799 26.1240569,13.1312921 C25.2651654,14.0672056 24.4778089,15.0679239 23.6358599,16.0198038 C23.0654618,16.6650346 22.4564724,17.2759847 21.8639549,17.9010227 C21.3679156,18.4236879 21.2366111,19.6282128 21.7128841,20.1161276 C21.9048993,20.3124205 22.4061155,20.4495438 22.6235444,20.3377789 C23.5243216,19.8728746 24.5032227,20.167314 25.4350612,19.933453 C26.8869408,19.5695128 28.2884636,19.2055725 29.403846,18.1292485 C30.1323743,17.4257872 31.031269,17.3652088 31.8270967,17.9052491 C32.4690299,18.3410383 32.5716263,18.7988986 32.2181865,19.5136303 C32.0751164,19.8024345 31.9781675,20.1137796 31.8313324,20.4889902 C32.2243046,20.6068599 32.5038562,20.7655848 32.7810546,20.7613584 C34.3035281,20.7397568 35.8429441,20.9116305 37.3051775,20.2433892 C38.0497071,19.902929 38.8648305,19.7197849 39.6343031,19.4286327 C40.5186085,19.0938076 41.270668,18.578656 41.9803713,17.9263812 C42.7423139,17.2262071 43.6440324,16.6467202 44.5598696,16.1531703 C45.3072229,15.7502532 45.774554,15.9470157 46.1665851,16.6462506 C46.2917715,16.8688412 46.3378928,17.2402951 46.2385908,17.4633552 C45.9689224,18.0658525 45.6912533,18.6429913 45.0300245,19.0177324 C44.3353813,19.4112574 43.6722699,19.9456626 43.393189,20.8332073 C43.9489977,21.26477 44.5871659,21.328166 45.2055678,21.3173652 C46.1807039,21.3004596 47.1539574,21.1717891 48.129564,21.1323427 L49.5942029,21.0838347 L49.5942029,21.0838347 L52.5247356,21.0116554 L52.5247356,21.0116554 C53.3525658,20.988645 53.5737598,20.8989513 53.7158887,20.1283372 C53.7658474,19.8574139 53.8212866,19.5871353 53.8788935,19.3170755 L54.0549053,18.5071272 C54.3187405,17.2919122 54.5593944,16.0725074 54.4750077,14.8101133 C54.4453583,14.3649322 54.3634694,13.922099 54.2914637,13.4806747 C54.1305098,12.496862 54.6096066,11.9154968 55.6035676,12.0761001 C56.1278444,12.1610978 56.6813,12.4409796 57.0916854,12.787075 C58.3543737,13.8511894 59.5285843,15.0190854 60.7851544,16.0907134 C62.1198483,17.2280855 63.5096054,18.3015918 64.9746626,19.4831063 C65.9069717,18.7946722 66.7682164,18.2072022 67.5739272,17.5511705 C68.6794265,16.6514162 69.729392,15.6845091 70.830185,14.7795893 C71.1958611,14.4790451 71.645779,14.2813433 72.0561645,14.0352727 C73.5409451,13.145807 74.8146444,12.0017092 76.0692977,10.833177 L76.905019,10.0530618 L76.905019,10.0530618 C77.2448106,9.73655121 77.6613142,9.50269024 78.2834811,9.05844831 C78.2751144,9.1730308 78.2720002,9.27669072 78.2709414,9.3700568 L78.2707348,9.61990222 C78.2703733,9.80341998 78.2628782,9.92653063 78.1982979,9.9990578 C77.8288569,10.4127757 77.3554076,10.7335127 76.985496,11.146761 C75.6272708,12.6645093 74.0869135,13.9648327 72.4340767,15.1515127 C71.9342725,15.5102874 71.5718908,16.0564326 71.1337385,16.5044313 C70.6875855,16.9604133 70.228255,17.4041856 69.7693952,17.8470187 C69.622309,17.9889006 69.455009,18.1121488 69.2859954,18.2339232 L69.0335025,18.4176244 C68.6597732,18.6979533 68.3241984,19.0142573 68.2375092,19.5619992 C68.2182135,19.6822168 67.9316026,19.7460825 67.7927681,19.8644218 C67.5508666,20.0710459 67.3282607,20.2992717 66.9738797,20.6359751 C67.3682639,20.958121 67.691113,21.1591099 67.9325438,21.4319477 C68.529297,22.1053546 68.3697549,22.6111142 67.7014667,23.2065674 C66.6411475,24.1514033 65.3742236,24.5021947 64.0456478,24.7961646 C63.3185314,24.9572375 62.6295357,25.2868969 61.9043018,25.4611186 C61.3659062,25.5902587 60.7889194,25.6794828 60.243935,25.6292356 C59.5078768,25.5616131 59.2353846,24.2063465 59.8476684,23.5949269 C60.294292,23.148337 60.8411588,22.8022415 61.3376687,22.40449 C61.8290017,22.0114345 62.3128047,21.6094566 62.8775553,21.1478395 C61.0760009,18.8176826 58.4889726,17.5713633 56.4831667,15.4764762 C56.2803271,15.8836197 56.0972538,16.1259335 56.0351312,16.3959536 C55.7184002,17.7751699 55.4256712,19.1600213 55.1395309,20.5462815 C55.0171682,21.1393867 55.2623641,21.606639 55.8035835,21.8367432 C56.9156715,22.3091612 57.5001884,23.2596322 58.1185903,24.2030593 C58.4513225,24.7106973 58.5722733,25.2535553 58.4310856,25.8109709 C58.175536,26.8173244 57.8597463,27.7893971 57.393827,28.7469122 C56.548113,30.4858423 54.9969313,31.6128831 53.9300233,33.1437802 C53.4824585,33.7857239 52.9365329,34.3595755 52.4240217,34.9780392 C52.0776414,34.9780392 51.712436,34.9479847 51.35429,34.984144 C50.6827074,35.0527056 50.3066776,34.9160519 50.2346719,34.2346618 C50.1466649,33.3983036 50.1565481,32.5065326 50.355152,31.6950632 C50.7189455,30.2125349 51.2479286,28.7699226 51.7166716,27.3132224 C51.9458662,26.6022475 52.1967096,25.897847 52.4343755,25.1887504 C52.6108601,24.6623285 52.7821677,24.1340281 52.9920667,23.4963108 C52.4687312,23.3929987 52.0451682,23.2380306 51.6230171,23.2413178 C50.6925905,23.2478922 49.7640464,23.3535523 48.8336198,23.3845459 C46.9633541,23.4474724 45.0897939,23.5686293 43.2228226,23.5071116 C42.0034319,23.466726 41.1868967,22.6529086 40.6833274,21.4267821 C40.4051877,21.486891 40.0912805,21.4807861 39.8611446,21.616031 C38.5702189,22.3767836 37.1602249,22.7022166 35.6914027,22.8585935 C35.0574702,22.926216 34.4277732,23.0351633 33.7994882,23.1455194 C32.773054,23.3258459 31.7800342,23.1868442 30.7936031,22.8900568 C29.9078859,22.6233238 29.3492535,21.9809105 28.8023866,21.1450219 C27.5589941,21.4840733 26.3118365,21.8517704 25.0500895,22.1593586 C23.893292,22.4415884 22.7223758,22.671223 21.5524008,22.895692 C21.3039105,22.9431216 20.9876502,22.9478176 20.7782219,22.8341743 C19.927331,22.3706788 19.4439986,22.8632896 18.9813737,23.4516988 C18.8425392,23.6282685 18.7018222,23.8114126 18.6072264,24.0124016 C18.1511903,24.9788391 17.1402867,25.0328431 16.3204571,25.3859826 C16.1816226,25.4460914 15.8846579,25.3019241 15.7434703,25.16574 C15.2257822,24.6665549 15.1575415,24.0335336 15.4088555,23.3967555 C15.9185429,22.1058242 16.5331798,20.8726537 17.473019,19.8184009 C17.7290392,19.5310055 17.8711681,19.1323148 18.0264746,18.767905 C18.3168505,18.0879237 18.5785183,17.3957328 18.8961905,16.5983514 C18.6227571,16.6824099 18.3945037,16.6988459 18.2316673,16.8106108 C18.0713016,16.9208494 17.9082446,17.0277202 17.7441121,17.1332225 L17.2501043,17.4476236 C16.2620996,18.076213 15.2935523,18.7275193 14.6935048,19.8334281 C14.4996071,20.1903244 14.0030972,20.3903742 13.6331855,20.6439583 C12.9663092,21.1004099 12.4829768,21.6690959 12.187424,22.4472237 C11.9657594,23.0304673 11.6377334,23.6188765 11.2136998,24.0711016 C10.194325,25.1582264 9.22483645,26.284328 7.8764944,27.0530638 C7.01619098,27.542857 6.29236896,28.2899911 5.36711923,28.7215538 C4.17831922,29.2761518 3.00269672,29.8584562 1.80448419,30.3923918 C1.35362497,30.5933808 0.773814349,30.7126593 0.456142137,30.2576165 C0.100349259,29.7485698 -0.219676081,29.1061565 0.197298112,28.4740744 C0.502734061,28.0115181 0.858056314,27.538161 1.29856178,27.2146063 C3.58344858,25.5367243 5.9017498,23.9043935 8.21016788,22.2584443 C8.69585339,21.9123489 9.19330455,21.5812806 9.67710756,21.2328372 C10.1778531,20.8721841 10.1787943,20.405871 9.84841524,19.9564634 C9.58627684,19.5995672 9.2921359,19.2234173 8.92551864,18.9928435 C7.68730295,18.2128374 6.43920412,17.4375272 5.13839524,16.7697555 C4.09925413,16.2358199 3.30860329,15.4619186 2.61066568,14.5795395 C1.98426314,13.7873238 2.03414944,12.6936246 2.61866631,11.8521007 C3.40978778,10.7119111 4.53646522,9.94129695 5.66596642,9.20919002 C8.34053114,7.47495596 11.0607465,5.81069235 13.7583719,4.11214791 C14.2017011,3.83273571 14.6247934,3.52186029 15.056357,3.22460327 C15.849361,2.67892767 16.6287168,2.11165046 17.4381927,1.59180288 C18.2391973,1.07759051 18.7159409,1.17855458 19.6115412,2.05388962 Z M54.5258352,23.9771816 C54.2721681,24.7539005 54.0241484,25.4470306 53.8227207,26.1528399 C53.6311761,26.8243684 53.4499853,27.5034105 53.336094,28.1909054 C53.2226732,28.8722955 52.7478121,29.5184656 53.0038324,30.4402911 C54.4693602,29.0840853 55.2651879,27.5437962 55.8087603,25.8748365 C56.0751344,25.0558535 55.6266283,24.4449035 54.5258352,23.9771816 Z M149.014117,0.00117260475 C149.9116,0.0476630386 150.818024,0.0706734553 151.700918,0.218127963 C152.432741,0.340693652 152.785239,0.947886893 153.042201,1.60767537 C153.56083,2.93852274 153.243158,4.22147087 152.720763,5.43069175 C151.631736,7.95338479 150.161502,10.2572441 148.411246,12.3807768 C146.913245,14.1976605 145.417126,16.0159531 143.923832,17.8365936 C143.762407,18.0333561 143.625455,18.2503115 143.44144,18.5081221 C144.306921,18.7809599 145.106513,19.0350136 145.907047,19.2853106 C146.905715,19.5966557 147.697307,20.1874129 148.360889,20.9918383 C148.976467,21.7385028 149.660756,22.4278761 150.291865,23.1623311 C151.550318,24.6251361 153.239393,24.5110232 154.762337,24.0550413 C156.90133,23.4140368 158.889722,22.3287904 160.831053,21.1998712 C161.318621,20.9162326 161.639587,20.5475963 161.69465,19.9667007 C161.715358,19.7445798 161.834426,19.5295028 161.840074,19.3092602 C161.864076,18.3461099 162.313523,17.5862966 162.967222,16.9330825 C163.708928,16.1915836 164.427573,15.4153342 165.244579,14.7639985 C166.248423,13.9637996 167.368511,14.1469437 167.993031,15.0908404 C168.422713,15.7407673 168.276819,16.9232209 167.628767,17.5900534 C167.137434,18.095813 166.585391,18.5428725 166.020169,19.0523889 C165.790504,18.8781671 165.590488,18.7264862 165.344351,18.5391157 C165.111862,18.7570102 164.830428,18.9542424 164.63606,19.2162794 C164.042601,20.0146 164.932554,20.5842252 165.02009,21.2895649 C165.073742,21.7187796 165.56884,21.6906036 165.966047,21.6333123 C167.064487,21.4759962 168.070214,21.1360056 168.863218,20.3123266 C169.016642,20.1531321 169.204422,20.0197656 169.395025,19.9037743 C170.216266,19.4041195 170.729248,18.7588886 170.73066,17.7238895 C170.731601,16.9279169 171.177284,16.4512726 171.715679,16.4381238 C172.391968,16.4216877 172.958601,16.8870617 173.165206,17.6285606 C173.683364,19.4895868 174.053276,20.2498697 174.942288,21.2515273 C175.80212,21.1515024 176.544297,20.7199397 177.244117,20.2216937 C178.047945,19.6492509 178.881894,19.3951971 179.890444,19.5628444 C180.501787,19.6647477 181.167722,19.6083957 181.781888,19.4862996 C182.850679,19.2740402 183.79946,19.3834571 184.599523,20.1709769 C185.287107,20.8481406 186.189296,20.8232517 186.92959,20.557458 C188.371586,20.0390192 189.770756,19.3684299 191.118627,18.6344446 C191.79021,18.2686259 192.325311,17.6407702 192.891944,17.0997906 C193.883081,16.1540156 194.99564,15.4106382 196.324687,15.0499852 C196.98168,14.8720066 197.667852,14.801097 198.258487,15.2908901 C198.788411,15.7299664 198.858064,16.1272483 198.354494,16.6010751 C197.787391,17.1345411 197.15487,17.6102462 196.504466,18.0422785 C195.912419,18.4358036 195.304841,18.7833079 194.968815,19.5417124 C195.989601,20.2879074 197.058862,20.2292073 198.104122,20.1855345 C199.380458,20.132 200.663854,20.0723608 201.925601,19.8878079 C202.956741,19.7365966 203.959644,19.3966059 204.976195,19.1434913 C205.231745,19.0800953 205.496236,19.0486321 205.746609,18.971148 C206.731628,18.666847 207.486512,18.8593831 208.040438,19.8150198 C208.843796,21.20128 210.274968,21.4299754 211.669431,21.414009 C214.315758,21.383485 216.90561,21.8249093 219.516641,22.1099567 C221.718227,22.3499225 223.906635,22.6856867 226.01692,23.3407792 C227.730938,23.8728364 229.393658,24.5772369 231.059202,25.2534614 C232.312007,25.7620385 233.615639,25.867229 234.931508,25.8183906 C235.977238,25.7794138 237.022497,25.6427601 238.060697,25.4962447 C239.804835,25.2497046 241.536267,24.9078355 243.28464,24.7007418 C246.886337,24.2743447 250.496976,23.9197964 254.101026,23.5112441 C254.792375,23.4328208 255.340654,23.6507154 256,24.1409782 C255.626794,24.4570192 255.329829,24.7735298 254.973566,24.9951812 C254.439406,25.3281278 253.867596,25.6019048 253.302845,25.883665 C253.177188,25.9461219 253.011999,25.9696019 252.87034,25.9555139 C250.102121,25.6878417 247.438852,26.4363846 244.738402,26.8022033 C242.995206,27.0384123 241.272246,27.4178493 239.531402,27.6765991 C237.712905,27.9466193 235.881701,28.1353987 234.05991,28.385226 C232.234824,28.6359926 230.544808,28.1926899 228.946564,27.3788725 C227.266901,26.5237303 225.548177,25.871925 223.687324,25.4577375 C220.343059,24.7129514 216.96585,24.2710575 213.567464,23.9442156 C212.712808,23.8620356 211.835562,24.0099597 210.982318,23.920266 C209.907409,23.8070923 208.820264,23.6450802 207.790536,23.3323264 C207.259199,23.1707839 206.787162,22.6870955 206.386189,22.2583504 C205.931094,21.7704356 205.454821,21.5652203 204.798769,21.6826204 C203.358185,21.9413702 201.919483,22.2320528 200.467132,22.4015785 C198.904656,22.5837834 197.327119,22.7302987 195.756642,22.7265419 C194.601727,22.7237243 193.593647,22.1489335 192.76817,21.3182105 C192.559683,21.1087688 192.358725,20.8908742 192.04576,20.5630932 C190.843782,21.1303704 189.590036,21.6309643 188.430414,22.2949792 C187.296678,22.9449061 186.072581,23.2031863 184.829188,23.4229592 C183.964649,23.5755794 183.256358,23.2069431 182.864327,22.4245889 C182.582893,21.8629469 182.239807,21.8122301 181.677409,21.942779 C180.953117,22.1108959 180.182232,22.2973272 179.461234,22.2156168 C178.327497,22.0864767 177.510491,22.6039762 176.676072,23.1876895 C176.461937,23.3379616 176.281217,23.5436465 176.053905,23.6657426 C174.730977,24.3771871 173.459817,24.0052637 172.681403,22.6946091 C172.359024,22.1512815 172.038999,21.6065451 171.62626,20.9068406 C170.914675,21.5004154 170.215325,21.9465358 169.696696,22.5480938 C168.844864,23.5351937 167.700773,23.8399643 166.537387,24.1043493 C164.937731,24.4682896 163.569622,24.0043245 162.49189,22.6598587 C161.192964,23.3623808 159.94863,24.0386053 158.701943,24.7091946 C157.809637,25.1891261 156.95451,25.7770658 156.010906,26.1161172 C153.625306,26.9731378 150.575182,27.3450613 148.605143,25.0566988 C147.946268,24.2907807 147.259154,23.5483425 146.626634,22.7612924 C146.014821,21.999131 145.253819,21.5116859 144.320098,21.2397873 C142.983522,20.8504886 141.871434,21.3642313 140.867119,22.1282711 C140.124472,22.6932003 139.371,23.3102552 138.829781,24.0545717 C138.494029,24.5161497 138.057387,24.7751082 137.606265,25.0026804 L137.218058,25.1940496 C137.024197,25.2898847 136.832211,25.3889411 136.648903,25.5046976 C136.271461,25.7432545 135.823896,25.4699471 135.724594,25.0050428 C135.566935,24.2677703 135.686944,23.5638393 136.194749,22.9965621 C137.018344,22.0761455 137.899825,21.2069152 138.728126,20.2902554 C140.259071,18.5959373 141.780603,16.8926969 143.284251,15.1744292 C144.38175,13.9201267 145.456188,12.6451618 146.520272,11.3617441 C148.423482,9.0663376 149.989724,6.56148938 151.13099,3.80258737 C151.696682,2.43417197 151.114989,1.39353762 149.374145,1.07280058 C149.26449,1.05260777 149.148245,1.07561819 149.036236,1.06528698 C148.70821,1.03476296 148.441836,0.919241272 148.433365,0.535577793 C148.424894,0.149566313 148.680914,-0.0157330075 149.014117,0.00117260475 Z M81.3066381,5.89662921 C81.9702201,6.00369809 82.4229618,6.43760881 82.4370806,7.08612688 C82.4464931,7.5280208 82.4107255,7.99527314 82.2742441,8.41133904 C81.632311,10.3648765 80.8341301,12.2540786 79.8218147,14.0507695 C79.4194299,14.7650317 79.0584601,15.5041826 78.7224335,16.2517863 C78.6141896,16.4922217 78.6461922,16.7955835 78.5967765,17.2172846 C79.5450869,16.8148372 80.3023233,16.4260081 81.1028573,16.1733631 C81.8478574,15.9385629 82.6333314,15.7695068 83.4112754,15.7150332 C84.2744025,15.6544547 85.0528171,15.9488941 85.4829688,16.7918267 C85.869823,17.5497617 86.2340871,18.3184974 86.6877701,19.2440797 C86.8755497,19.2440797 87.1386293,19.2661509 87.3965321,19.2398533 C88.0756447,19.1703525 88.6361597,19.3304862 89.0992551,19.8808578 C89.5576444,20.4260638 90.2033426,20.4828854 90.8598651,20.3293261 C92.2044422,20.0146939 93.551843,19.7071057 94.885125,19.3478614 C96.5520806,18.8989235 98.209153,18.4133567 99.8634016,17.9193372 C101.08091,17.5553969 102.275357,17.1130334 103.499454,16.7758603 C105.338188,16.2696312 107.164215,15.7000059 109.075425,15.4933818 C109.773833,15.4182457 110.110331,15.8577917 110.410119,16.3353752 C110.584721,16.6133786 110.652962,16.9575957 110.806386,17.3736616 C111.068053,17.3736616 111.373019,17.43424 111.644099,17.3633304 C112.930319,17.0280357 114.241952,17.0571509 115.551703,17.0242789 C117.878475,16.9669877 120.205248,16.8425436 122.53202,16.8453612 C124.326044,16.8477092 126.12101,16.9862413 127.912211,17.1083374 C128.1447,17.1243038 128.514611,17.3830536 128.541908,17.5699545 C128.575322,17.7977107 128.331067,18.2748246 128.177644,18.2875038 C127.182741,18.3701535 126.517747,19.4384943 125.425426,19.1755181 C125.28612,19.1421764 125.111048,19.2351573 124.980214,19.1896061 C123.304316,18.6101193 121.622772,19.1431156 119.947815,19.1736397 C118.035193,19.2083901 116.119748,19.313111 114.214656,19.4859239 C113.60529,19.5413367 112.998409,19.6234229 112.392266,19.7144502 L110.574303,19.9966237 C110.271096,20.0422125 109.967637,20.0856035 109.663707,20.1245804 C108.698925,20.2480853 107.726612,20.3222821 106.755241,20.3866174 C106.176372,20.4251246 105.843169,20.0917083 105.737278,19.5422759 C105.682215,19.2539413 105.672803,18.9562147 105.628564,18.519956 C105.041223,18.6415825 104.496239,18.7167185 103.973845,18.868869 C101.310575,19.6441792 98.6520115,20.4373342 95.9934481,21.2290804 C94.4841521,21.6784879 92.9089686,21.9860761 91.4886208,22.631307 C89.886141,23.3596571 88.6540434,22.9393648 87.362647,22.0236441 C87.0477986,21.800584 86.5141093,21.7813304 86.0976057,21.824064 C85.110704,21.9264369 84.4005302,21.6047606 84.0847404,20.6730736 C83.8823715,20.0766811 83.8287202,19.4300415 83.7054163,18.8068818 C83.5835243,18.192175 83.2926777,17.948922 82.6907477,18.0944981 C82.0384608,18.2527534 81.31558,18.3767279 80.7931857,18.7509994 C79.9324117,19.3689934 78.842443,19.66672 78.2122755,20.6448975 C78.0047296,20.967513 77.4559803,21.0938355 77.0418298,21.2558476 C76.5970887,21.4295997 76.1109326,21.5019182 75.6737215,21.6892887 C75.2242742,21.8822944 74.8731875,21.7714688 74.7800037,21.3492981 C74.646346,20.7421048 74.5258659,20.0823163 74.6303448,19.4849847 C74.7564724,18.7646178 75.0642615,18.0559909 75.397935,17.394324 C76.5782637,15.0528967 77.8065963,12.735419 79.0062207,10.4038533 C79.1596446,10.1061267 79.3784854,9.76144002 79.345071,9.46371341 C79.2274147,8.41603505 79.8947616,7.62992407 80.168195,6.71796021 C80.3828003,6.00041089 80.73624,5.80458755 81.3066381,5.89662921 Z" id="Combined-Shape" fill="#3A4443"></path>
    </g>
</svg>