<svg data-v-423bf9ae="" xmlns="http://www.w3.org/2000/svg" viewBox="0 0 277.82076671532803 60" class="font"><!----><!----><!----><g data-v-423bf9ae="" id="335897f3-ed68-4a4c-8e0d-f7dc7551fbd6" fill="black" transform="matrix(6.109979823280842,0,0,6.109979823280842,3.238287806261326,-11.670061748471603)"><path d="M3.31 1.96L3.31 1.96L3.31 1.96Q4.94 1.96 5.49 3.01L5.49 3.01L5.49 3.01Q5.87 3.80 5.87 4.56L5.87 4.56L5.86 4.56L5.86 4.56Q4.74 4.66 4.33 4.66L4.33 4.66L4.33 4.66Q4.33 4.12 4.00 3.75L4.00 3.75L4.00 3.75Q3.68 3.57 3.42 3.57L3.42 3.57L3.14 3.57L3.14 3.57Q2.45 3.57 2.30 4.11L2.30 4.11L2.30 4.11Q2.26 4.27 2.26 4.35L2.26 4.35L2.26 4.50L2.26 4.50Q2.26 5.26 3.07 5.61L3.07 5.61L3.07 5.61Q3.14 5.67 4.19 6.12L4.19 6.12L4.19 6.12Q4.75 6.38 5.23 6.76L5.23 6.76L5.23 6.77L3.51 6.77L3.51 6.97L5.78 6.97L5.78 7.24L6.06 7.24L6.06 10.21L5.50 10.21L5.50 11.73L1.16 11.73L1.16 10.21L0.13 10.21L0.13 9.18L0.71 9.18L0.71 8.83L0.13 8.83L0.13 8.59L2.12 8.59L2.12 10.21L4.16 10.21L4.16 7.77L2.63 7.77L2.63 6.97L0.74 6.97L0.74 6.77L1.65 6.77L1.65 6.76L1.65 6.76Q0.45 5.96 0.45 4.50L0.45 4.50L0.45 4.37L0.45 4.37Q0.45 3.14 1.20 2.51L1.20 2.51L1.20 2.51Q1.89 1.96 3.31 1.96ZM5.78 6.97L5.78 6.77L6.47 6.77L6.47 6.97L5.78 6.97ZM-0.53 9.18L-0.53 8.83L0.13 8.83L0.13 9.18L-0.53 9.18ZM3.86 8.83L3.86 8.83L4.06 8.83L4.06 8.83Q4.09 8.83 4.09 8.86L4.09 8.86L4.09 8.91L3.92 8.91L3.92 8.97L4.07 8.97L4.07 9.02L4.07 9.02Q4.07 9.05 4.05 9.05L4.05 9.05L3.92 9.05L3.92 9.12L4.09 9.12L4.09 9.17L4.09 9.17Q4.09 9.19 4.06 9.19L4.06 9.19L3.86 9.19L3.86 9.19Q3.82 9.19 3.82 9.17L3.82 9.17L3.82 8.86L3.82 8.86Q3.83 8.83 3.86 8.83ZM3.77 9.31L3.77 9.31L3.83 9.31L3.83 9.31Q3.85 9.31 3.95 9.43L3.95 9.43L3.95 9.43Q4.00 9.31 4.03 9.31L4.03 9.31L4.07 9.31L4.07 9.31Q4.11 9.31 4.11 9.34L4.11 9.34L4.11 9.34Q3.96 9.50 3.96 9.68L3.96 9.68L3.92 9.68L3.92 9.68Q3.88 9.68 3.87 9.49L3.87 9.49L3.87 9.49Q3.77 9.36 3.77 9.31ZM3.73 9.79L3.73 9.79L3.79 9.79L3.79 9.79Q3.83 9.79 3.87 10.00L3.87 10.00L3.90 10.00L3.90 10.00Q3.94 9.79 3.98 9.79L3.98 9.79L4.05 9.79L4.05 9.79Q4.07 9.80 4.07 9.82L4.07 9.82L4.07 10.12L4.07 10.12Q4.07 10.16 4.05 10.16L4.05 10.16L4.00 10.16L4.00 9.95L3.98 9.95L3.92 10.16L3.87 10.16L3.87 10.16Q3.83 10.16 3.79 9.95L3.79 9.95L3.77 9.95L3.77 10.16L3.73 10.16L3.73 10.16Q3.69 10.16 3.69 10.12L3.69 10.12L3.69 9.82L3.69 9.82Q3.70 9.79 3.73 9.79ZM5.60 10.62L5.60 10.29L5.76 10.29L5.76 10.29Q5.89 10.29 5.89 10.42L5.89 10.42L5.89 10.42Q5.86 10.42 5.86 10.45L5.86 10.45L5.86 10.45Q5.91 10.51 5.91 10.56L5.91 10.56L5.91 10.56Q5.87 10.66 5.73 10.66L5.73 10.66L5.63 10.66L5.63 10.66Q5.60 10.66 5.60 10.62L5.60 10.62ZM5.79 10.37L5.69 10.37L5.69 10.43L5.76 10.43L5.76 10.43Q5.79 10.43 5.79 10.40L5.79 10.40L5.79 10.37ZM5.78 10.49L5.69 10.49L5.69 10.58L5.78 10.58L5.78 10.58Q5.81 10.58 5.81 10.54L5.81 10.54L5.81 10.53L5.81 10.53Q5.81 10.49 5.78 10.49L5.78 10.49ZM5.60 11.10L5.60 10.77L5.67 10.77L5.67 10.77Q5.70 10.77 5.81 10.99L5.81 10.99L5.82 10.99L5.82 10.77L5.91 10.77L5.91 11.10L5.91 11.10Q5.91 11.14 5.87 11.14L5.87 11.14L5.84 11.14L5.84 11.14Q5.82 11.14 5.68 10.93L5.68 10.93L5.68 11.10L5.68 11.10Q5.68 11.14 5.65 11.14L5.65 11.14L5.63 11.14L5.63 11.14Q5.60 11.14 5.60 11.10L5.60 11.10ZM7.05 1.96L7.05 1.96L8.97 1.96L8.97 1.96Q8.97 3.37 9.46 4.35L9.46 4.35L9.46 4.35Q9.99 5.64 10.19 6.39L10.19 6.39L10.19 6.41L10.20 6.41L10.20 6.41Q10.45 5.50 11.22 3.62L11.22 3.62L11.22 3.62Q11.42 2.72 11.42 1.96L11.42 1.96L13.22 1.96L13.22 1.96Q13.06 3.43 12.81 4.13L12.81 4.13L11.72 6.59L11.07 6.59L11.07 8.28L10.07 8.28L10.07 8.61L11.07 8.61L11.07 11.73L9.19 11.73L9.19 11.73Q9.17 11.73 9.17 11.70L9.17 11.70L9.17 10.17L8.87 10.17L8.87 7.46L9.43 7.46L9.43 7.21L8.82 7.21L8.82 7.21Q8.74 7.12 7.68 4.67L7.68 4.67L7.68 4.67Q7.24 3.68 7.24 3.49L7.24 3.49L8.05 3.49L8.05 3.14L7.18 3.14L7.18 3.14Q7.05 2.06 7.05 1.96ZM5.88 3.49L5.88 3.14L7.18 3.14L7.23 3.49L5.88 3.49ZM11.07 8.61L11.07 8.28L11.87 8.28L11.87 8.61L11.07 8.61ZM13.56 8.85L13.56 1.91L15.51 1.91L15.51 5.94L15.13 5.94L15.13 10.10L18.03 10.10L18.03 10.97L17.46 10.97L17.46 11.17L18.03 11.17L18.03 11.73L16.15 11.73L16.15 11.58L13.58 11.58L13.58 11.58Q13.56 11.42 13.56 11.33L13.56 11.33L13.56 9.14L14.05 9.14L14.05 8.85L13.56 8.85ZM18.03 11.17L18.03 10.97L18.74 10.97L18.74 11.17L18.03 11.17ZM19.42 6.80L19.42 2.00L24.21 2.00L24.21 3.60L24.21 3.60Q24.21 3.63 24.18 3.63L24.18 3.63L21.33 3.63L21.33 5.74L23.88 5.74L23.88 5.76L23.88 5.76Q23.88 5.84 23.86 6.79L23.86 6.79L23.86 6.79Q23.84 6.79 23.84 6.80L23.84 6.80L23.95 6.80L23.95 7.29L21.75 7.29L21.75 9.29L21.15 9.29L21.15 9.49L21.75 9.49L21.75 10.10L24.25 10.10L24.25 10.32L24.05 10.32L24.05 11.52L21.05 11.52L21.05 11.73L19.63 11.73L19.63 8.24L19.42 8.24L19.42 7.01L17.86 7.01L17.86 6.80L19.42 6.80ZM20.23 6.80L19.43 6.80L19.43 7.01L20.23 7.01L20.23 6.80ZM25.27 1.96L25.27 1.96L27.26 1.96L27.26 1.96Q27.30 1.96 27.90 3.53L27.90 3.53L27.90 3.53Q27.95 3.59 29.16 6.62L29.16 6.62L29.67 6.62L29.67 1.96L31.42 1.96L31.42 7.51L31.62 7.51L31.62 9.67L30.91 9.67L30.91 10.08L31.62 10.08L31.62 11.37L29.00 11.37L29.00 9.73L28.53 9.73L28.53 9.73Q27.59 7.44 27.26 6.56L27.26 6.56L27.26 4.92L27.02 4.92L27.02 9.93L26.62 9.93L26.62 11.66L24.99 11.66L24.99 7.94L25.28 7.94L25.28 7.92L25.28 7.92Q25.27 3.09 25.27 1.96ZM29.13 6.62L28.21 6.62L28.21 6.98L29.29 6.98L29.29 6.98Q29.16 6.62 29.13 6.62L29.13 6.62ZM30.48 6.62L29.69 6.62L29.69 6.98L29.31 6.98L29.31 6.98Q29.65 7.85 29.72 8.11L29.72 8.11L29.74 8.11L29.74 8.07L29.74 8.07Q29.69 7.18 29.69 6.98L29.69 6.98L30.48 6.98L30.48 6.62ZM29.00 11.73L29.00 11.55L32.16 11.55L32.16 11.73L29.00 11.73ZM36.12 1.93L36.12 1.93L36.12 1.93Q38.17 1.93 38.70 3.22L38.70 3.22L38.70 3.22Q38.86 3.53 38.86 3.63L38.86 3.63L37.99 3.63L37.99 3.89L38.92 3.89L38.92 3.88L38.92 3.88Q38.92 3.81 38.86 3.63L38.86 3.63L40.43 3.63L40.43 3.89L38.94 3.89L38.94 3.91L38.94 3.91Q39.05 4.46 39.10 5.09L39.10 5.09L39.10 5.09Q39.10 5.13 37.30 5.22L37.30 5.22L37.30 5.21L37.30 5.21Q37.30 3.58 36.19 3.58L36.19 3.58L35.98 3.58L35.98 3.58Q35.15 3.58 34.97 4.29L34.97 4.29L34.97 4.29Q34.82 4.89 34.82 5.87L34.82 5.87L34.82 7.21L34.80 7.40L34.17 7.40L34.17 7.71L34.80 7.71L34.80 10.08L37.43 10.08L37.43 7.62L38.95 7.62L38.95 10.08L38.11 10.08L38.11 11.60L36.35 11.60L36.35 11.73L34.99 11.73L34.99 11.60L33.60 11.60L33.60 10.84L34.52 10.84L34.52 10.51L33.13 10.51L33.13 9.39L32.55 9.39L32.55 8.00L32.86 8.00L32.86 8.00Q32.84 7.16 32.84 6.66L32.84 6.66L32.84 6.66Q32.84 4.42 33.05 3.84L33.05 3.84L33.05 3.84Q33.26 3.17 33.71 2.69L33.71 2.69L33.71 2.69Q34.52 1.93 36.12 1.93ZM40.11 6.80L40.11 2.00L44.91 2.00L44.91 3.60L44.91 3.60Q44.91 3.63 44.87 3.63L44.87 3.63L42.03 3.63L42.03 5.74L44.58 5.74L44.58 5.76L44.58 5.76Q44.58 5.84 44.55 6.79L44.55 6.79L44.55 6.79Q44.53 6.79 44.53 6.80L44.53 6.80L44.65 6.80L44.65 7.29L42.44 7.29L42.44 9.29L41.84 9.29L41.84 9.49L42.44 9.49L42.44 10.10L44.94 10.10L44.94 10.32L44.74 10.32L44.74 11.52L41.75 11.52L41.75 11.73L40.33 11.73L40.33 8.24L40.11 8.24L40.11 7.01L38.55 7.01L38.55 6.80L40.11 6.80ZM40.93 6.80L40.13 6.80L40.13 7.01L40.93 7.01L40.93 6.80Z"></path></g><!----><!----></svg>