<?xml version="1.0" encoding="UTF-8"?>
<svg width="64px" height="64px" viewBox="0 0 64 64" version="1.1" xmlns="http://www.w3.org/2000/svg" xmlns:xlink="http://www.w3.org/1999/xlink">
    <title>Show Logotype Light</title>
    <g id="Show-Logotype-Light" stroke="none" stroke-width="1" fill="none" fill-rule="evenodd">
        <path d="M47.9053184,50.0567175 L39.3351446,50.0567175 L39.3351446,37.1828805 L40.695225,37.1828805 L40.695225,48.8800893 L47.9053184,48.8800893 L47.9053184,50.0567175 Z M20.4798094,44.4832155 L19.515129,43.5209527 L43.5201906,19.5167845 L44.4824891,20.4790473 L20.4798094,44.4832155 Z M16.4543526,17.9185709 C16.4543526,16.0250093 17.9263836,14.3886863 21.1991514,14.3886863 C22.652127,14.3886863 24.1598869,14.8102717 25.1912613,15.5272051 L24.7315494,16.6133234 C23.6287171,15.89639 22.3400945,15.5462598 21.1991514,15.5462598 C18.8458074,15.5462598 17.7977595,16.5942687 17.7977595,17.8828433 C17.7977595,21.4127279 25.724813,19.2786007 25.724813,23.9684406 C25.724813,25.8643841 24.2170531,27.4816524 20.9228479,27.4816524 C18.9934869,27.4816524 17.0998549,26.8004466 16.1423201,25.8072199 L16.6758718,24.759211 C17.5952957,25.6619278 19.2316796,26.3240789 20.9228479,26.3240789 C23.3333581,26.3240789 24.3814061,25.3117975 24.3814061,24.0422776 C24.3814061,20.512393 16.4543526,22.6822479 16.4543526,17.9185709 L16.4543526,17.9185709 Z M31.998809,0 C14.3249097,0 0,14.3267585 0,32 C0,49.6732415 14.3249097,64 31.998809,64 C49.6727083,64 64,49.6732415 64,32 C64,14.3267585 49.6727083,0 31.998809,0 L31.998809,0 Z" id="Fill-1" fill="#FFFFFF"></path>
    </g>
</svg>